<svg preserveAspectRatio="none" width="100%" height="100%" overflow="visible" style="display: block;" viewBox="0 0 134 33" fill="none" xmlns="http://www.w3.org/2000/svg">
<path id="Quadrocopter" d="M29.794 21L31.294 28H26.794L22.294 18.5V5L16.294 8L0 3.5L22.294 3L23.294 1.5L24.294 1L26.294 0L28.294 1L29.294 1.5L30.794 3L52.294 3.5L37.794 8L30.294 5V14L52.294 11L60.794 5.5H72.294L80.294 11L102.794 14V5.5L96.794 8L80.294 3.5L102.794 3L103.794 1.5L104.794 1L106.794 0L108.794 1L109.794 1.5L110.794 3L133.294 4L117.294 8L110.794 5V18.5L106.294 28L101.794 27.5L103.294 21L89.794 19.5L88.794 23.5H86.794V22L78.294 22.5L72.794 32.5H60.294L55.294 23L46.794 22L46.294 23.5H44.294L43.294 19.5L29.794 21Z" fill="var(--fill-0, #6750A4)"/>
</svg>
