<svg preserveAspectRatio="none" width="100%" height="100%" overflow="visible" style="display: block;" viewBox="0 0 113 47" fill="none" xmlns="http://www.w3.org/2000/svg">
<g id="Vector 2">
<path d="M8.5 37.5L2 27.5H15.5L27 16L46 12.5L62 14V9.5L58.5 4.5H49L51 0H77V4.5H71V14L75.5 19.5L84.5 26L111 27.5L104 37.5L96.5 36L90 37.5L83 36L77 37.5L71 36L62 37.5L55 36L49 37.5L42.5 36L35.5 37.5L28.5 36L22.5 37.5L15.5 36L8.5 37.5Z" fill="var(--fill-0, #6750A4)"/>
<path d="M2 40.5L0 43L6.5 46.5L14.5 44L21 46.5L28.5 44L35.5 46.5L42.5 44L49 46.5L56.5 44L62 46.5L71 44L77 46.5L83 44L90 46.5L96.5 44L104 46.5L112.5 43L109.5 40.5L104 43L96.5 40.5L90 43L83 40.5L77 43L71 40.5L62 43L56.5 40.5L49 43L42.5 40.5L35.5 43L28.5 40.5L21 43L14.5 40.5L6.5 43L2 40.5Z" fill="var(--fill-0, #6750A4)"/>
</g>
</svg>
