<svg preserveAspectRatio="none" width="100%" height="100%" overflow="visible" style="display: block;" viewBox="0 0 135 33" fill="none" xmlns="http://www.w3.org/2000/svg">
<path id="Quadrocopter" d="M30.1754 21.3231L31.6946 28.4308H27.137L22.5794 18.7846V5.07692L16.5026 8.12308L0 3.55385L22.5794 3.04615L23.5922 1.52308L24.605 1.01538L26.6306 0L28.6562 1.01538L29.669 1.52308L31.1882 3.04615L52.9633 3.55385L38.2777 8.12308L30.6818 5.07692V14.2154L52.9633 11.1692L61.5721 5.58462H73.2193L81.3217 11.1692L104.11 14.2154V5.58462L98.0329 8.12308L81.3217 3.55385L104.11 3.04615L105.122 1.52308L106.135 1.01538L108.161 0L110.186 1.01538L111.199 1.52308L112.212 3.04615L135 4.06154L118.795 8.12308L112.212 5.07692V18.7846L107.654 28.4308L103.097 27.9231L104.616 21.3231L90.9433 19.8L89.9305 23.8615H87.9049V22.3385L79.2961 22.8462L73.7257 33H61.0657L56.0017 23.3538L47.3929 22.3385L46.8865 23.8615H44.8609L43.8481 19.8L30.1754 21.3231Z" fill="var(--fill-0, #49454F)"/>
</svg>
