<svg preserveAspectRatio="none" width="100%" height="100%" overflow="visible" style="display: block;" viewBox="0 0 69 17" fill="none" xmlns="http://www.w3.org/2000/svg">
<path id="Quadrocopter" d="M15.423 10.9846L16.1994 14.6462H13.87L11.5406 9.67692V2.61538L8.43465 4.18462L0 1.83077L11.5406 1.56923L12.0582 0.784615L12.5759 0.523077L13.6112 0L14.6465 0.523077L15.1641 0.784615L15.9406 1.56923L27.0701 1.83077L19.5642 4.18462L15.6818 2.61538V7.32308L27.0701 5.75385L31.4702 2.87692H37.4232L41.5644 5.75385L53.2116 7.32308V2.87692L50.1057 4.18462L41.5644 1.83077L53.2116 1.56923L53.7293 0.784615L54.2469 0.523077L55.2822 0L56.3175 0.523077L56.8352 0.784615L57.3528 1.56923L69 2.09231L60.7176 4.18462L57.3528 2.61538V9.67692L55.0234 14.6462L52.6939 14.3846L53.4704 10.9846L46.4821 10.2L45.9645 12.2923H44.9292V11.5077L40.5291 11.7692L37.682 17H31.2114L28.6231 12.0308L24.2231 11.5077L23.9642 12.2923H22.9289L22.4113 10.2L15.423 10.9846Z" fill="var(--fill-0, #1D1B20)"/>
</svg>
