<svg preserveAspectRatio="none" width="100%" height="100%" overflow="visible" style="display: block;" viewBox="0 0 28 28" fill="none" xmlns="http://www.w3.org/2000/svg">
<g id="help_24dp_E8EAED_FILL0_wght400_GRAD0_opsz24 1" clip-path="url(#clip0_0_69)">
<path id="Vector" d="M13.93 22.4C14.42 22.4 14.8342 22.2308 15.1725 21.8925C15.5108 21.5542 15.68 21.14 15.68 20.65C15.68 20.16 15.5108 19.7458 15.1725 19.4075C14.8342 19.0692 14.42 18.9 13.93 18.9C13.44 18.9 13.0258 19.0692 12.6875 19.4075C12.3492 19.7458 12.18 20.16 12.18 20.65C12.18 21.14 12.3492 21.5542 12.6875 21.8925C13.0258 22.2308 13.44 22.4 13.93 22.4ZM12.67 17.01H15.26C15.26 16.24 15.3475 15.6333 15.5225 15.19C15.6975 14.7467 16.1933 14.14 17.01 13.37C17.6167 12.7633 18.095 12.1858 18.445 11.6375C18.795 11.0892 18.97 10.43 18.97 9.66C18.97 8.35333 18.4917 7.35 17.535 6.65C16.5783 5.95 15.4467 5.6 14.14 5.6C12.81 5.6 11.7308 5.95 10.9025 6.65C10.0742 7.35 9.49667 8.19 9.17 9.17L11.48 10.08C11.5967 9.66 11.8592 9.205 12.2675 8.715C12.6758 8.225 13.3 7.98 14.14 7.98C14.8867 7.98 15.4467 8.18417 15.82 8.5925C16.1933 9.00083 16.38 9.45 16.38 9.94C16.38 10.4067 16.24 10.8442 15.96 11.2525C15.68 11.6608 15.33 12.04 14.91 12.39C13.8833 13.3 13.2533 13.9883 13.02 14.455C12.7867 14.9217 12.67 15.7733 12.67 17.01ZM14 28C12.0633 28 10.2433 27.6325 8.54 26.8975C6.83667 26.1625 5.355 25.165 4.095 23.905C2.835 22.645 1.8375 21.1633 1.1025 19.46C0.3675 17.7567 0 15.9367 0 14C0 12.0633 0.3675 10.2433 1.1025 8.54C1.8375 6.83667 2.835 5.355 4.095 4.095C5.355 2.835 6.83667 1.8375 8.54 1.1025C10.2433 0.3675 12.0633 0 14 0C15.9367 0 17.7567 0.3675 19.46 1.1025C21.1633 1.8375 22.645 2.835 23.905 4.095C25.165 5.355 26.1625 6.83667 26.8975 8.54C27.6325 10.2433 28 12.0633 28 14C28 15.9367 27.6325 17.7567 26.8975 19.46C26.1625 21.1633 25.165 22.645 23.905 23.905C22.645 25.165 21.1633 26.1625 19.46 26.8975C17.7567 27.6325 15.9367 28 14 28ZM14 25.2C17.1267 25.2 19.775 24.115 21.945 21.945C24.115 19.775 25.2 17.1267 25.2 14C25.2 10.8733 24.115 8.225 21.945 6.055C19.775 3.885 17.1267 2.8 14 2.8C10.8733 2.8 8.225 3.885 6.055 6.055C3.885 8.225 2.8 10.8733 2.8 14C2.8 17.1267 3.885 19.775 6.055 21.945C8.225 24.115 10.8733 25.2 14 25.2Z" fill="var(--fill-0, #E8EAED)"/>
</g>
<defs>
<clipPath id="clip0_0_69">
<rect width="28" height="28" fill="white"/>
</clipPath>
</defs>
</svg>
