<svg preserveAspectRatio="none" width="100%" height="100%" overflow="visible" style="display: block;" viewBox="0 0 18 18" fill="none" xmlns="http://www.w3.org/2000/svg">
<path id="icon" d="M0 18V13.75L13.2 0.575C13.4 0.391667 13.6208 0.25 13.8625 0.15C14.1042 0.05 14.3583 0 14.625 0C14.8917 0 15.15 0.05 15.4 0.15C15.65 0.25 15.8667 0.4 16.05 0.6L17.425 2C17.625 2.18333 17.7708 2.4 17.8625 2.65C17.9542 2.9 18 3.15 18 3.4C18 3.66667 17.9542 3.92083 17.8625 4.1625C17.7708 4.40417 17.625 4.625 17.425 4.825L4.25 18H0ZM14.6 4.8L16 3.4L14.6 2L13.2 3.4L14.6 4.8Z" fill="var(--fill-0, white)"/>
</svg>
