<svg preserveAspectRatio="none" width="100%" height="100%" overflow="visible" style="display: block;" viewBox="0 0 19 19" fill="none" xmlns="http://www.w3.org/2000/svg">
<g id="warning_24dp_E8EAED_FILL0_wght400_GRAD0_opsz24 1">
<path id="Vector" d="M0.791667 16.625L9.5 1.58333L18.2083 16.625H0.791667ZM3.52292 15.0417H15.4771L9.5 4.75L3.52292 15.0417ZM9.5 14.25C9.72431 14.25 9.91233 14.1741 10.0641 14.0224C10.2158 13.8707 10.2917 13.6826 10.2917 13.4583C10.2917 13.234 10.2158 13.046 10.0641 12.8943C9.91233 12.7425 9.72431 12.6667 9.5 12.6667C9.27569 12.6667 9.08767 12.7425 8.93594 12.8943C8.7842 13.046 8.70833 13.234 8.70833 13.4583C8.70833 13.6826 8.7842 13.8707 8.93594 14.0224C9.08767 14.1741 9.27569 14.25 9.5 14.25ZM8.70833 11.875H10.2917V7.91667H8.70833V11.875Z" fill="var(--fill-0, #49454F)"/>
</g>
</svg>
